Coordinates
version=1
nRows=13
nColumns=34
inDegrees=yes

Units are S.I. units (second, meters, Newtons, ...)
If the header above contains a line with 'inDegrees', this indicates whether rotational values are in degrees (yes) or radians (no).

endheader
time	pelvis_tilt	pelvis_list	pelvis_rotation	pelvis_tx	pelvis_ty	pelvis_tz	hip_flexion_r	hip_adduction_r	hip_rotation_r	knee_angle_r	ankle_angle_r	subtalar_angle_r	mtp_angle_r	hip_flexion_l	hip_adduction_l	hip_rotation_l	knee_angle_l	ankle_angle_l	subtalar_angle_l	mtp_angle_l	lumbar_extension	lumbar_bending	lumbar_rotation	arm_flex_r	arm_add_r	arm_rot_r	elbow_flex_r	pro_sup_r	arm_flex_l	arm_add_l	arm_rot_l	elbow_flex_l	pro_sup_l
      0.00000000	     37.34479716	      3.87041520	     -5.56134920	     -0.12486911	      0.49607140	     -0.28552517	     48.71632769	     -1.34042339	    -15.64428054	     28.75202679	    -18.29894285	     -6.06498999	      0.00000000	     49.70847422	    -14.88142182	    -31.75306057	     59.54176734	     15.29405895	     10.30884250	      0.00000000	    -56.79464564	     10.59874020	    -26.48835730	      9.72368277	    -16.28257284	     15.29422162	     25.02056278	     68.90984793	     67.10363912	     -5.51570571	     37.84653608	     41.82142714	     74.73834303
      0.01666670	     33.72615827	      3.76850884	     -8.31837555	     -0.13704683	      0.49304674	     -0.27756226	     51.70965038	      2.68317489	     -8.24377651	     31.28176945	    -12.92339175	      1.73500217	      0.00000000	     49.94311252	    -16.67815394	    -37.16123239	     57.12315814	      7.39330245	      3.67814742	      0.00000000	    -55.86227293	     10.22264719	    -22.62336741	      6.58242364	    -19.56447306	     16.05088750	     24.94339202	     70.28230720	     65.09545879	     -4.53496641	     36.55837346	     43.97076874	     76.20597669
      0.03333330	     30.50732081	      3.30342218	     -7.63936362	     -0.13771016	      0.48668910	     -0.28036837	     55.85745173	      3.54062456	     -7.74533667	     35.38622342	    -10.94423275	      2.62034891	      0.00000000	     53.29575718	    -16.59851811	    -34.56506172	     58.94453260	      7.14120611	     -0.08064441	      0.00000000	    -53.25663855	     11.19554933	    -20.27335319	      4.31988108	    -22.11862057	     15.71295854	     25.81796840	     71.33645512	     59.82372884	     -3.14954428	     36.06682713	     47.25782289	     77.89348654
      0.05000000	     30.29781653	      3.74663299	     -7.10498131	     -0.14576706	      0.48646713	     -0.27900241	     56.01040171	      3.94220435	     -6.96369539	     34.42293124	    -11.32830126	      3.42305118	      0.00000000	     53.71542460	    -15.88796495	    -34.53017845	     58.85857274	      6.49542079	     -0.77742179	      0.00000000	    -52.82692392	     11.03622118	    -21.37374856	      3.15912719	    -24.03557387	     13.19462138	     25.58258007	     74.01464869	     53.49240275	     -4.25319785	     31.03045031	     52.33004415	     82.47139139
      0.06666670	     29.97426526	      3.97050222	     -6.27131105	     -0.14178800	      0.48408631	     -0.28495025	     56.87283754	      3.63828901	     -5.91665621	     35.72031991	    -10.41597113	      2.46141182	      0.00000000	     55.41927379	    -14.75193412	    -33.98244941	     59.07150814	      6.92737954	     -2.16433218	      0.00000000	    -51.95661753	     11.50020629	    -21.87204891	      1.65028520	    -26.62667207	     11.83243104	     25.68467300	     75.38464550	     48.84918027	     -4.96887970	     30.72546143	     54.39623289	     84.71998721
      0.08333330	     29.88222573	      4.28125308	     -5.51466360	     -0.15010828	      0.48256456	     -0.28492139	     57.18971215	      3.18214777	     -4.89014419	     36.10458011	     -9.35981194	      2.28446663	      0.00000000	     56.37166470	    -13.91526066	    -33.93662902	     59.15469633	      6.68166855	     -2.37452701	      0.00000000	    -51.90882883	     11.30419281	    -22.11404508	      1.07351332	    -28.61078599	     10.73769187	     24.88403227	     76.29007181	     45.07247338	     -5.35364113	     29.13040607	     57.34422297	     86.18387124
      0.10000000	     30.88112217	      4.54789588	     -4.41027555	     -0.15184826	      0.48405855	     -0.28549626	     55.94249056	      2.56520297	     -3.82481621	     35.53964707	     -9.03212513	      2.15892545	      0.00000000	     55.09951900	    -12.41453394	    -34.21772622	     57.57788992	      5.29510179	     -2.48114253	      0.00000000	    -52.72688034	     11.41443254	    -22.56550126	      0.89684721	    -30.54720693	     10.00456295	     23.56032716	     76.62197965	     42.16521863	     -6.00341406	     27.89743298	     59.88701277	     86.84082507
      0.11666670	     30.56275374	      4.36554919	     -3.53211815	     -0.14816305	      0.48423593	     -0.28544492	     56.36188225	      2.51429182	     -3.67606230	     36.39648943	     -8.61828378	      0.76686509	      0.00000000	     54.94935029	    -11.95193001	    -34.04876415	     56.86516940	      3.90704081	     -3.95414280	      0.00000000	    -52.56042041	     11.47472811	    -22.55243834	      2.18423788	    -32.86572205	      8.05627181	     25.43753931	     76.54889162	     38.69026566	     -6.30180950	     25.27732740	     62.85056517	     87.03480164
      0.13333330	     30.59439566	      4.47236948	     -2.21474943	     -0.15238223	      0.48335872	     -0.28357531	     56.11831974	      2.02543484	     -3.27878753	     35.41903835	     -9.09851113	      0.43488524	      0.00000000	     54.74727472	    -11.09755156	    -34.22092524	     56.32867394	      5.28366941	     -2.20693264	      0.00000000	    -52.88685491	     10.70953486	    -22.23848608	      5.20492703	    -34.90582924	      4.56813851	     27.16840847	     76.39143789	     36.05329462	     -6.35234910	     23.32317469	     65.53381513	     86.99606287
      0.15000000	     30.44044775	      4.43295144	     -1.15428938	     -0.15046831	      0.49102769	     -0.28563974	     55.33322708	      1.44951391	     -3.00004364	     34.66457484	     -9.27820946	     -0.42111764	      0.00000000	     54.41475949	    -10.45033975	    -34.44883640	     55.80451149	      2.06609278	     -3.78974222	      0.00000000	    -53.14967717	     10.64581629	    -22.09664316	      6.76625563	    -36.41741822	      0.23462706	     29.70669414	     76.44049820	     32.84460413	     -6.96543993	     20.81563028	     69.10793826	     86.43815223
      0.16666670	     30.83652238	      4.09046280	     -0.31812808	     -0.15150673	      0.49235364	     -0.28491667	     54.40070264	      1.30063231	     -3.05685576	     34.63906199	     -8.91824545	     -0.87781827	      0.00000000	     53.84879413	    -10.43174449	    -34.21591110	     55.47861113	      0.92971532	     -3.90508402	      0.00000000	    -54.16093241	     11.02226808	    -20.05333925	      7.21725248	    -37.46790168	      1.23729250	     29.92221129	     77.77085157	     31.05217485	     -7.02770315	     19.73059304	     71.88411167	     85.79430589
      0.18333330	     30.96284867	      4.32629136	      0.57724113	     -0.15590883	      0.49038825	     -0.28628041	     53.90307197	      0.76608565	     -3.13670041	     33.52843152	     -9.20552151	     -0.81730399	      0.00000000	     53.48370986	     -9.58780127	    -34.55927867	     54.78635171	      0.91616352	     -3.42177379	      0.00000000	    -54.42609368	     10.65363129	    -19.57555086	      8.57129073	    -39.40173076	      5.41585833	     30.45051529	     79.70737468	     28.97062124	     -7.64304044	     17.29618552	     75.51990145	     84.83747719
      0.20000000	     30.44036796	      3.74655916	      0.70265482	     -0.14975173	      0.49202340	     -0.29161143	     54.59841198	      0.89484505	     -3.01126044	     34.50218774	     -9.23545843	     -0.42362016	      0.00000000	     54.01811024	    -10.02451278	    -34.42157659	     54.73426173	     -1.21163539	     -4.66254993	      0.00000000	    -54.41553658	     10.84124401	    -17.93637199	      9.53290838	    -41.55073443	      7.00441287	     33.03932997	     80.23584894	     26.91351439	     -7.33997644	     14.94047130	     78.72093283	     84.38378781
